<svg width="24" height="21" viewBox="0 0 24 21" fill="none" xmlns="http://www.w3.org/2000/svg">
<path d="M21.057 5.68078C21.0663 5.89198 21.0663 6.09358 21.0663 6.30478C21.0756 12.708 16.3711 20.1 7.76784 20.1C5.23039 20.1 2.73924 19.3416 0.600006 17.9208C0.970437 17.9688 1.34087 17.988 1.7113 17.988C3.81349 17.988 5.86012 17.2584 7.5178 15.9048C5.51747 15.8664 3.75793 14.5128 3.14672 12.5352C3.85053 12.6792 4.57287 12.6504 5.25817 12.4488C3.08189 12.0072 1.51682 10.02 1.50756 7.70639C1.50756 7.68719 1.50756 7.66799 1.50756 7.64879C2.15581 8.02319 2.88741 8.23439 3.62828 8.25359C1.58165 6.83278 0.942654 4.00077 2.1836 1.78317C4.56361 4.81678 8.06418 6.65038 11.8241 6.85198C11.4444 5.17198 11.963 3.40557 13.1761 2.21517C15.0561 0.381561 18.0195 0.477562 19.7976 2.42637C20.844 2.21517 21.8535 1.81197 22.7703 1.24556C22.4184 2.36877 21.6868 3.31917 20.7144 3.92397C21.6405 3.80877 22.548 3.54957 23.4 3.16557C22.7703 4.14477 21.9738 4.98958 21.057 5.68078Z" fill="white"/>
</svg>
